HIERARCHY
ROOT Hips
{
 OFFSET 0.000000 0.000000 0.000000
 CHANNELS 6 Xposition Yposition Zposition Yrotation Xrotation Zrotation
 JOINT Chest
 {
  OFFSET 0.000000 10.383400 0.001500
  CHANNELS 3 Yrotation Xrotation Zrotation
  JOINT Chest2
  {
   OFFSET 0.000000 10.418200 -0.003100
   CHANNELS 3 Yrotation Xrotation Zrotation
   JOINT Chest3
   {
    OFFSET 0.000000 10.375100 0.000000
    CHANNELS 3 Yrotation Xrotation Zrotation
    JOINT Chest4
    {
     OFFSET 0.000000 10.364600 0.000000
     CHANNELS 3 Yrotation Xrotation Zrotation
     JOINT Neck
     {
      OFFSET 0.000000 15.642200 0.000000
      CHANNELS 3 Yrotation Xrotation Zrotation
      JOINT Head
      {
       OFFSET 0.000000 9.697300 -0.006500
       CHANNELS 3 Yrotation Xrotation Zrotation
       End Site
       {
        OFFSET 0.000000 18.492200 -0.003400
       }
      }
     }
     JOINT RightCollar
     {
      OFFSET -3.166800 10.349300 0.000000
      CHANNELS 3 Yrotation Xrotation Zrotation
      JOINT RightShoulder
      {
       OFFSET -14.729700 0.000000 0.000000
       CHANNELS 3 Yrotation Xrotation Zrotation
       JOINT RightElbow
       {
        OFFSET 0.000000 -32.224300 0.000000
        CHANNELS 3 Yrotation Xrotation Zrotation
        JOINT RightWrist
        {
         OFFSET 0.000000 -26.084100 0.000000
         CHANNELS 3 Yrotation Xrotation Zrotation
         End Site
         {
          OFFSET 0.000000 -19.319400 0.000000
         }
        }
       }
      }
     }
     JOINT LeftCollar
     {
      OFFSET 3.166800 10.349300 0.000000
      CHANNELS 3 Yrotation Xrotation Zrotation
      JOINT LeftShoulder
      {
       OFFSET 14.729700 0.000000 0.000000
       CHANNELS 3 Yrotation Xrotation Zrotation
       JOINT LeftElbow
       {
        OFFSET 0.000000 -32.224300 0.000000
        CHANNELS 3 Yrotation Xrotation Zrotation
        JOINT LeftWrist
        {
         OFFSET 0.000000 -26.084100 0.000000
         CHANNELS 3 Yrotation Xrotation Zrotation
         End Site
         {
          OFFSET 0.000000 -19.319400 0.000000
         }
        }
       }
      }
     }
    }
   }
  }
 }
 JOINT RightHip
 {
  OFFSET -8.428900 -0.007500 -0.000800
  CHANNELS 3 Yrotation Xrotation Zrotation
  JOINT RightKnee
  {
   OFFSET 0.000000 -43.834600 0.000700
   CHANNELS 3 Yrotation Xrotation Zrotation
   JOINT RightAnkle
   {
    OFFSET 0.000000 -42.757000 0.001200
    CHANNELS 3 Yrotation Xrotation Zrotation
    JOINT RightToe
    {
     OFFSET 0.000000 -6.946900 15.649300
     CHANNELS 3 Yrotation Xrotation Zrotation
     End Site
     {
      OFFSET 0.000000 -1.580800 6.825800
     }
    }
   }
  }
 }
 JOINT LeftHip
 {
  OFFSET 8.428900 -0.007500 -0.000800
  CHANNELS 3 Yrotation Xrotation Zrotation
  JOINT LeftKnee
  {
   OFFSET 0.000000 -43.834600 0.000700
   CHANNELS 3 Yrotation Xrotation Zrotation
   JOINT LeftAnkle
   {
    OFFSET 0.000000 -42.757000 0.001200
    CHANNELS 3 Yrotation Xrotation Zrotation
    JOINT LeftToe
    {
     OFFSET 0.000000 -6.946900 15.649300
     CHANNELS 3 Yrotation Xrotation Zrotation
     End Site
     {
      OFFSET 0.000000 -1.580800 6.825800
     }
    }
   }
  }
 }
}
MOTION
Frames: 9
Frame Time: 0.008333
21.160218 126.827786 -39.462691 -14.251512 -26.075330 -1.966939 -1.551994 23.561976 2.353086 -0.288189 3.508915 0.385556 -0.453389 5.653764 0.613210 -1.326429 19.633219 1.984665 2.955332 11.394569 -1.690840 6.395886 -14.472221 -4.515101 2.244529 -7.462813 -7.927592 -3.299333 -20.611450 0.652874 -75.315834 -22.013323 40.150338 -11.453666 -5.811101 6.641346 -5.672305 -11.459159 -0.495892 2.166079 -22.700612 6.255682 56.959729 -17.460542 -35.226102 15.350469 -7.056357 -7.988586 -2.132015 -42.790197 -2.926016 -26.097608 77.729275 -26.084037 2.401878 -6.283136 6.491052 -0.004239 -0.003090 -0.001882 -7.240454 -36.698630 -5.203670 -1.800957 70.570229 1.593641 -11.782818 -6.707776 -4.580763 0.000871 0.000099 0.000387
21.160079 126.828840 -39.466234 -14.256906 -26.091305 -1.961825 -1.534530 23.536362 2.348610 -0.280642 3.450405 0.381947 -0.453413 5.691909 0.612017 -1.332036 19.648700 1.991225 2.934092 11.389234 -1.687335 6.302142 -14.527621 -4.492530 2.248210 -7.509605 -7.913785 -3.312462 -20.568740 0.696908 -75.345097 -21.967344 40.292499 -11.456386 -5.832698 6.615147 -5.662030 -11.450535 -0.496562 2.184594 -22.643515 6.225462 56.997442 -17.420339 -35.242659 15.266121 -7.053872 -8.019096 -2.154081 -42.777168 -2.913400 -26.073908 77.726745 -26.070330 2.405427 -6.278871 6.490680 -0.002415 -0.001852 -0.001072 -7.224233 -36.684881 -5.222911 -1.796749 70.571956 1.612659 -11.782127 -6.707889 -4.581673 0.000782 0.000540 0.000347
21.159255 126.830164 -39.469363 -14.258898 -26.112623 -1.960650 -1.527841 23.503750 2.347412 -0.279595 3.416525 0.382167 -0.445811 5.628251 0.606964 -1.332157 19.655502 1.990473 2.885360 11.403924 -1.679113 6.229768 -14.478285 -4.457885 2.255500 -7.460090 -7.898173 -3.342341 -20.525287 0.751651 -75.375767 -21.902515 40.431339 -11.474804 -5.886290 6.592819 -5.633038 -11.382950 -0.511505 2.177226 -22.547146 6.186735 57.021543 -17.399231 -35.249328 15.231766 -7.039984 -8.053431 -2.169273 -42.757879 -2.904378 -26.056577 77.727938 -26.053032 2.403985 -6.274307 6.492092 0.000261 0.000150 0.000116 -7.209497 -36.665601 -5.243266 -1.767440 70.577019 1.662714 -11.791797 -6.711090 -4.589014 0.000528 0.000923 0.000234
21.158064 126.832579 -39.470262 -14.268337 -26.150828 -1.954832 -1.518665 23.435207 2.345930 -0.279729 3.448572 0.380131 -0.443489 5.608086 0.605401 -1.328051 19.597805 1.987089 2.838634 11.428823 -1.670144 6.161113 -14.418164 -4.423077 2.271588 -7.405503 -7.885302 -3.379828 -20.485633 0.814512 -75.401628 -21.829263 40.558234 -11.500328 -5.957409 6.580295 -5.586569 -11.370561 -0.535013 2.162128 -22.390276 6.142256 57.016201 -17.396466 -35.242792 15.221424 -7.005964 -8.057504 -2.162691 -42.720670 -2.908516 -26.061405 77.724974 -26.038214 2.404890 -6.266425 6.476603 0.007142 0.001342 0.003171 -7.179605 -36.627231 -5.262980 -1.742958 70.582250 1.700501 -11.809062 -6.713969 -4.588713 -0.000335 0.000587 -0.000149
21.158223 126.833898 -39.473045 -14.273030 -26.178883 -1.946414 -1.517525 23.385524 2.338882 -0.279894 3.488877 0.378307 -0.443423 5.621019 0.605346 -1.325976 19.561956 1.985373 2.808625 11.392278 -1.666542 6.095366 -14.388833 -4.393115 2.298796 -7.445614 -7.879888 -3.405265 -20.415139 0.841832 -75.444948 -21.733781 40.712778 -11.516901 -6.023722 6.582637 -5.555787 -11.419697 -0.551404 2.183239 -22.268691 6.087278 56.980037 -17.411804 -35.226677 15.219910 -6.961677 -7.952351 -2.170137 -42.695651 -2.909574 -26.035405 77.727562 -26.019437 2.411574 -6.263865 6.474777 0.001952 0.001215 0.000867 -7.155149 -36.599414 -5.284295 -1.719583 70.585647 1.733398 -11.819797 -6.716773 -4.589028 -0.001078 0.001149 -0.000478
21.158385 126.835192 -39.475874 -14.279579 -26.210006 -1.937416 -1.519901 23.356102 2.330615 -0.279294 3.462068 0.376499 -0.441168 5.559164 0.601234 -1.328432 19.580919 1.981911 2.782165 11.429511 -1.656887 6.044762 -14.374015 -4.369388 2.319863 -7.416551 -7.869190 -3.408288 -20.412560 0.924252 -75.452656 -21.697031 40.759051 -11.515216 -6.069304 6.600964 -5.526244 -11.384269 -0.571040 2.224546 -22.167259 6.019264 56.912973 -17.448916 -35.208026 15.187525 -6.949268 -7.852186 -2.176917 -42.672086 -2.922855 -25.975334 77.737115 -25.953605 2.422754 -6.251611 6.469696 -0.002757 -0.001280 -0.001224 -7.120202 -36.567656 -5.306994 -1.730996 70.588371 1.734895 -11.816306 -6.717640 -4.588459 0.000040 0.001208 0.000018
21.157065 126.836496 -39.479152 -14.285849 -26.243523 -1.937414 -1.521019 23.332580 2.332250 -0.280474 3.437390 0.375903 -0.441827 5.545190 0.598878 -1.330439 19.581353 1.976033 2.762069 11.433316 -1.650676 6.009167 -14.376630 -4.352399 2.335291 -7.420204 -7.859928 -3.374720 -20.430695 0.999247 -75.450183 -21.685138 40.758931 -11.492156 -6.085495 6.630961 -5.485933 -11.385874 -0.588388 2.276389 -22.069520 5.944173 56.828278 -17.478305 -35.171061 15.120778 -6.950381 -7.739689 -2.173557 -42.640469 -2.929478 -26.004326 77.734014 -25.944675 2.428345 -6.243688 6.450082 0.009033 -0.000106 0.004010 -7.109468 -36.535890 -5.303600 -1.746818 70.591720 1.725248 -11.845664 -6.715500 -4.593092 -0.001781 0.001863 -0.000791
21.157681 126.837417 -39.482546 -14.291057 -26.274878 -1.928195 -1.523339 23.336120 2.323707 -0.287852 3.403872 0.377271 -0.443386 5.534887 0.597011 -1.324255 19.630826 1.969803 2.740788 11.361080 -1.645624 5.988240 -14.390149 -4.343660 2.338253 -7.495076 -7.849391 -3.314735 -20.445859 1.045803 -75.432514 -21.686058 40.744233 -11.450426 -6.075572 6.661589 -5.442519 -11.457517 -0.595776 2.334183 -21.981353 5.864892 56.629050 -17.551952 -35.046152 15.125536 -6.963401 -7.665377 -2.169428 -42.616041 -2.947558 -25.972569 77.745856 -25.897050 2.431334 -6.241635 6.443026 0.009061 -0.002338 0.004022 -7.091671 -36.505804 -5.313181 -1.794151 70.590907 1.680214 -11.839263 -6.710742 -4.593858 -0.001501 0.001953 -0.000666
21.157959 126.838088 -39.486580 -14.298284 -26.303623 -1.921486 -1.540154 23.297696 2.317335 -0.287712 3.409709 0.374850 -0.445728 5.523242 0.595362 -1.323211 19.619896 1.960918 2.726914 11.346862 -1.639298 5.981185 -14.403223 -4.345681 2.346300 -7.458122 -7.844451 -3.260452 -20.515475 1.094971 -75.375136 -21.713238 40.699668 -11.398229 -6.052326 6.680239 -5.380748 -11.460273 -0.614215 2.388128 -21.904499 5.786485 56.431808 -17.635783 -34.947960 15.081448 -6.971211 -7.555761 -2.167588 -42.592666 -2.956668 -25.955645 77.754768 -25.865739 2.435393 -6.242556 6.427006 0.010434 -0.002550 0.004632 -7.082962 -36.478932 -5.312009 -1.842446 70.589648 1.628631 -11.829570 -6.707072 -4.595079 -0.000407 0.001967 -0.000181
